<svg width="1169" height="300" viewBox="0 0 1169 300" fill="none" xmlns="http://www.w3.org/2000/svg">
<g clip-path="url(#clip0_2058_2744)">
<path d="M317.588 202.295C317.588 209.08 316.853 215.664 315.449 222.048C313.845 229.334 311.405 236.32 308.163 242.837C293.156 273.353 261.772 294.342 225.474 294.342H57.1712C32.4069 294.342 16.8441 267.633 29.0554 246.088L82.957 150.99L128.185 71.1817C133.924 61.0559 144.664 54.7979 156.302 54.7979H248.703L154.74 220.566C149.104 230.509 156.287 242.837 167.717 242.837H230.474C242.112 242.837 252.851 236.58 258.59 226.455L301.645 150.489C308.163 160.048 312.909 170.877 315.449 182.542C316.853 188.892 317.588 195.51 317.588 202.295Z" fill="url(#paint0_linear_2058_2744)"/>
<path d="M315.449 182.542C312.909 170.877 308.163 160.048 301.645 150.489L283.479 182.542H315.449Z" fill="url(#paint1_linear_2058_2744)"/>
<path d="M315.482 117.801C312.909 129.599 308.062 140.529 301.444 150.155C301.511 150.255 301.612 150.388 301.678 150.489L258.623 226.455C252.884 236.58 242.145 242.837 230.507 242.837H167.746C156.317 242.837 149.134 230.511 154.768 220.568L236.083 77.0676C241.718 67.1241 234.535 54.798 223.106 54.798H156.302C144.663 54.798 133.923 61.0561 128.185 71.1818L82.9565 150.99L27.6737 54.3676C15.3466 32.8225 30.9024 6 55.7247 6H225.54C241.617 6 256.758 10.1111 269.926 17.3973C285.568 26.0205 298.436 39.0556 306.859 54.8314C310.77 62.1511 313.677 70.039 315.516 78.3279C316.919 84.6784 317.655 91.2962 317.655 98.0811C317.655 104.866 316.919 111.484 315.516 117.834L315.482 117.801Z" fill="url(#paint2_linear_2058_2744)"/>
<path d="M41.4785 78.4951L82.9568 150.99L118.087 89.0001L41.4785 78.4951Z" fill="url(#paint3_linear_2058_2744)"/>
<path d="M167.745 242.837H230.506C242.145 242.837 252.884 236.58 258.623 226.455L277.5 193.147L187.956 162L154.768 220.567C149.134 230.511 156.316 242.837 167.745 242.837Z" fill="url(#paint4_linear_2058_2744)"/>
</g>
<path d="M678.3 243.795C677.883 240.86 680.343 238.441 683.308 238.482L696.06 238.655C698.804 238.693 700.977 240.863 701.833 243.47C704.466 251.488 712.253 256.716 723.599 256.716C734.396 256.716 742.376 252.022 742.376 243.416C742.376 234.183 733.457 232.306 715.149 228.707C696.685 225.264 680.411 219.318 680.411 197.098C680.411 177.695 696.528 163.925 721.252 163.925C744.801 163.925 760.54 175.121 763.362 193C763.823 195.917 761.396 198.35 758.443 198.35H745.512C742.831 198.35 740.663 196.296 739.703 193.793C737.125 187.074 730.681 182.702 721.252 182.702C711.237 182.702 704.039 186.927 704.039 195.377C704.039 204.296 712.645 206.174 730.797 209.616C749.574 213.059 766.161 218.692 766.004 240.755C765.848 261.254 748.948 275.337 723.286 275.337C697.751 275.337 681.027 262.974 678.3 243.795Z" fill="white"/>
<path d="M587.948 274.398C585.026 274.398 582.657 272.029 582.657 269.107V170.155C582.657 167.233 585.026 164.864 587.948 164.864H624.28C649.63 164.864 664.339 175.504 664.339 193.812C664.339 207.582 656.202 215.406 643.684 218.066C658.236 219.944 668.251 227.611 668.251 243.259C668.251 262.349 653.229 274.398 626.315 274.398H587.948ZM624.906 183.328H606.129V209.929H624.906C634.921 209.929 640.867 204.766 640.867 196.629C640.867 188.492 635.077 183.328 624.906 183.328ZM626.471 228.081H606.129V255.777H626.471C637.737 255.777 644.153 250.614 644.153 242.164C644.153 233.245 637.581 228.081 626.471 228.081Z" fill="white"/>
<path d="M490.134 270.868C489.387 272.984 487.388 274.398 485.144 274.398H472.202C468.527 274.398 465.971 270.742 467.233 267.29L503.422 168.337C504.185 166.251 506.169 164.864 508.391 164.864H529.15C531.376 164.864 533.364 166.257 534.123 168.35L570.029 267.303C571.281 270.753 568.725 274.398 565.055 274.398H551.154C548.911 274.398 546.911 272.984 546.165 270.868L538.961 250.457H497.338L490.134 270.868ZM517.993 189.9L503.597 231.523H532.545L517.993 189.9Z" fill="white"/>
<path d="M459.991 269.107C459.991 272.029 457.622 274.398 454.7 274.398H398.309C395.387 274.398 393.019 272.029 393.019 269.107V170.155C393.019 167.233 395.387 164.864 398.309 164.864H411.199C414.121 164.864 416.49 167.233 416.49 170.155V254.213H454.7C457.622 254.213 459.991 256.581 459.991 259.503V269.107Z" fill="white"/>
<path d="M1063.16 131.983C1062.41 134.098 1060.41 135.513 1058.17 135.513H1045.23C1041.55 135.513 1039 131.857 1040.26 128.405L1076.45 29.4522C1077.21 27.366 1079.2 25.9785 1081.42 25.9785H1102.18C1104.4 25.9785 1106.39 27.372 1107.15 29.4647L1143.06 128.417C1144.31 131.867 1141.75 135.513 1138.08 135.513H1124.18C1121.94 135.513 1119.94 134.098 1119.19 131.983L1111.99 111.572H1070.36L1063.16 131.983ZM1091.02 51.015L1076.62 92.6381H1105.57L1091.02 51.015Z" fill="white"/>
<path d="M952.693 135.513C949.771 135.513 947.402 133.144 947.402 130.222V31.2694C947.402 28.3473 949.771 25.9785 952.693 25.9785H991.999C1016.1 25.9785 1032.21 40.218 1032.21 62.4379C1032.21 76.5209 1024.86 87.7873 1013.44 93.264L1031.09 127.814C1032.89 131.335 1030.34 135.513 1026.38 135.513H1012.32C1010.32 135.513 1008.49 134.384 1007.59 132.596L990.59 98.7407H970.874V130.222C970.874 133.144 968.505 135.513 965.583 135.513H952.693ZM990.121 45.5382H970.874V79.181H990.121C1001.23 79.181 1008.27 72.6089 1008.27 62.4379C1008.27 52.1103 1001.23 45.5382 990.121 45.5382Z" fill="white"/>
<path d="M933.187 80.7452C933.187 112.667 911.124 136.451 878.89 136.451C846.655 136.451 824.592 112.667 824.592 80.7452C824.592 48.8237 846.655 25.0391 878.89 25.0391C911.124 25.0391 933.187 48.8237 933.187 80.7452ZM848.533 80.7452C848.533 101.4 860.425 116.579 878.89 116.579C897.197 116.579 909.09 101.4 909.09 80.7452C909.09 60.0901 897.197 44.9117 878.89 44.9117C860.425 44.9117 848.533 60.0901 848.533 80.7452Z" fill="white"/>
<path d="M757.935 135.513H723.324C720.402 135.513 718.033 133.144 718.033 130.222V31.2694C718.033 28.3473 720.402 25.9785 723.324 25.9785H757.935C792.047 25.9785 814.736 48.3548 814.736 80.5893C814.736 112.667 792.047 135.513 757.935 135.513ZM741.505 45.5382V115.953H757.935C778.903 115.953 790.639 101.401 790.639 80.5893C790.639 59.6213 778.903 45.5382 757.935 45.5382H741.505Z" fill="white"/>
<path d="M705.545 130.222C705.545 133.144 703.176 135.513 700.254 135.513H643.863C640.941 135.513 638.572 133.144 638.572 130.222V31.2694C638.572 28.3473 640.941 25.9785 643.863 25.9785H656.753C659.675 25.9785 662.044 28.3473 662.044 31.2694V115.327H700.254C703.176 115.327 705.545 117.696 705.545 120.618V130.222Z" fill="white"/>
<path d="M601.84 135.513C598.918 135.513 596.549 133.144 596.549 130.222V31.2694C596.549 28.3473 598.918 25.9785 601.84 25.9785H614.73C617.652 25.9785 620.021 28.3473 620.021 31.2694V130.222C620.021 133.144 617.652 135.513 614.73 135.513H601.84Z" fill="white"/>
<path d="M488.646 88.2567V31.2694C488.646 28.3473 491.015 25.9785 493.937 25.9785H506.827C509.749 25.9785 512.118 28.3473 512.118 31.2694V89.5085C512.118 106.878 518.534 116.266 533.556 116.266C548.734 116.266 555.15 106.878 555.15 89.5085V31.2694C555.15 28.3473 557.518 25.9785 560.44 25.9785H573.33C576.252 25.9785 578.621 28.3473 578.621 31.2694V88.2567C578.621 119.396 563.13 136.452 533.556 136.452C504.138 136.452 488.646 119.396 488.646 88.2567Z" fill="white"/>
<path d="M398.309 135.513C395.387 135.513 393.019 133.144 393.019 130.222V31.2692C393.019 28.3471 395.387 25.9783 398.309 25.9783H434.642C459.991 25.9783 474.7 36.6188 474.7 54.9267C474.7 68.6967 466.563 76.5206 454.045 79.1807C468.597 81.0585 478.612 88.7259 478.612 104.374C478.612 123.464 463.59 135.513 436.676 135.513H398.309ZM435.268 44.4427H416.49V71.0439H435.268C445.282 71.0439 451.228 65.8801 451.228 57.7433C451.228 49.6064 445.439 44.4427 435.268 44.4427ZM436.832 89.1953H416.49V116.892H436.832C448.099 116.892 454.514 111.728 454.514 103.278C454.514 94.3591 447.942 89.1953 436.832 89.1953Z" fill="white"/>
<defs>
<linearGradient id="paint0_linear_2058_2744" x1="235.5" y1="14.5" x2="-33.7027" y2="361.793" gradientUnits="userSpaceOnUse">
<stop stop-color="#FB05FF"/>
<stop offset="0.5" stop-color="#926EFC"/>
<stop offset="1" stop-color="#24DBFF"/>
</linearGradient>
<linearGradient id="paint1_linear_2058_2744" x1="290.5" y1="144.5" x2="297.502" y2="184.062" gradientUnits="userSpaceOnUse">
<stop stop-opacity="0.58"/>
<stop offset="1" stop-color="#995616" stop-opacity="0"/>
</linearGradient>
<linearGradient id="paint2_linear_2058_2744" x1="222" y1="-50.5" x2="134.5" y2="204" gradientUnits="userSpaceOnUse">
<stop stop-color="#F9E71D"/>
<stop offset="0.639497" stop-color="#FD6D91"/>
<stop offset="1" stop-color="#F60EFE"/>
</linearGradient>
<linearGradient id="paint3_linear_2058_2744" x1="82.1464" y1="168.624" x2="96.6289" y2="104.642" gradientUnits="userSpaceOnUse">
<stop stop-opacity="0.5"/>
<stop offset="1" stop-color="#995616" stop-opacity="0"/>
</linearGradient>
<linearGradient id="paint4_linear_2058_2744" x1="214" y1="262.5" x2="224.5" y2="189" gradientUnits="userSpaceOnUse">
<stop stop-opacity="0.5"/>
<stop offset="1" stop-color="#995616" stop-opacity="0"/>
</linearGradient>
<clipPath id="clip0_2058_2744">
<rect width="317.588" height="288.376" fill="white" transform="translate(0 6)"/>
</clipPath>
</defs>
</svg>
