<svg width="1090" height="1090" viewBox="0 0 1090 1090" fill="none" xmlns="http://www.w3.org/2000/svg">
<rect width="1090" height="1090" fill="white"/>
<g clip-path="url(#clip0_2058_2387)">
<path d="M878.896 663.457C878.896 678.889 877.223 693.864 874.03 708.384C870.382 724.956 864.832 740.844 857.458 755.667C823.326 825.072 751.945 872.812 669.388 872.812H286.597C230.273 872.812 194.876 812.063 222.65 763.062L345.245 546.768L448.114 365.251C461.165 342.22 485.592 327.987 512.063 327.987H722.221L508.511 705.013C495.691 727.629 512.028 755.667 538.024 755.667H680.76C707.23 755.667 731.656 741.435 744.708 718.407L842.635 545.628C857.458 567.369 868.253 591.999 874.03 618.53C877.223 632.973 878.896 648.025 878.896 663.457Z" fill="url(#paint0_linear_2058_2387)"/>
<path d="M874.03 618.53C868.252 592 857.458 567.37 842.634 545.628L801.315 618.53H874.03Z" fill="url(#paint1_linear_2058_2387)"/>
<path d="M874.105 471.282C868.251 498.117 857.229 522.975 842.177 544.868C842.329 545.096 842.557 545.4 842.709 545.628L744.783 718.407C731.731 741.435 707.305 755.668 680.835 755.668H538.09C512.095 755.668 495.759 727.633 508.574 705.017L693.518 378.638C706.334 356.022 689.997 327.987 664.002 327.987H512.062C485.59 327.987 461.164 342.221 448.112 365.251L345.244 546.769L219.507 327.008C191.47 278.006 226.851 217 283.307 217H669.539C706.104 217 740.54 226.35 770.492 242.922C806.068 262.535 835.335 292.182 854.492 328.063C863.386 344.711 870 362.652 874.181 381.504C877.374 395.948 879.046 410.999 879.046 426.431C879.046 441.863 877.374 456.915 874.181 471.358L874.105 471.282Z" fill="url(#paint2_linear_2058_2387)"/>
<path d="M250.905 381.885L345.244 546.769L425.146 405.777L250.905 381.885Z" fill="url(#paint3_linear_2058_2387)"/>
<path d="M538.089 755.667H680.834C707.304 755.667 731.73 741.435 744.782 718.407L787.719 642.651L584.056 571.81L508.573 705.017C495.758 727.633 512.095 755.667 538.089 755.667Z" fill="url(#paint4_linear_2058_2387)"/>
</g>
<defs>
<linearGradient id="paint0_linear_2058_2387" x1="692.192" y1="236.333" x2="79.9116" y2="1026.22" gradientUnits="userSpaceOnUse">
<stop stop-color="#FB05FF"/>
<stop offset="0.5" stop-color="#926EFC"/>
<stop offset="1" stop-color="#24DBFF"/>
</linearGradient>
<linearGradient id="paint1_linear_2058_2387" x1="817.285" y1="532.007" x2="833.21" y2="621.987" gradientUnits="userSpaceOnUse">
<stop stop-opacity="0.68"/>
<stop offset="1" stop-color="#995616" stop-opacity="0"/>
</linearGradient>
<linearGradient id="paint2_linear_2058_2387" x1="661.487" y1="88.4952" x2="462.475" y2="667.335" gradientUnits="userSpaceOnUse">
<stop stop-color="#F9E71D"/>
<stop offset="0.639497" stop-color="#FD6D91"/>
<stop offset="1" stop-color="#F60EFE"/>
</linearGradient>
<linearGradient id="paint3_linear_2058_2387" x1="343.401" y1="586.875" x2="376.341" y2="441.353" gradientUnits="userSpaceOnUse">
<stop stop-opacity="0.5"/>
<stop offset="1" stop-color="#995616" stop-opacity="0"/>
</linearGradient>
<linearGradient id="paint4_linear_2058_2387" x1="643.293" y1="800.389" x2="667.174" y2="633.219" gradientUnits="userSpaceOnUse">
<stop stop-opacity="0.5"/>
<stop offset="1" stop-color="#995616" stop-opacity="0"/>
</linearGradient>
<clipPath id="clip0_2058_2387">
<rect width="676" height="655.482" fill="white" transform="translate(203 217)"/>
</clipPath>
</defs>
</svg>
